<svg viewBox="0 0 1281 770" preserveAspectRatio="none" fill="none" xmlns="http://www.w3.org/2000/svg">
<path d="M681.065 0.171875C689.163 -0.066818 697.635 -0.0419577 707.388 0.152344C708.31 0.171107 709.259 0.191475 710.229 0.214844C716.383 0.363916 722.437 0.523148 729.125 0.78418C739.997 1.19422 751.097 1.88572 758.652 2.64648C761.401 2.92052 763.905 3.28406 766.322 3.65332C766.333 3.6551 766.344 3.65641 766.354 3.6582C766.518 3.68321 766.683 3.70833 766.846 3.7334C785.227 5.57666 803.665 8.18281 821.768 12.876C823.362 13.2709 824.849 13.6545 826.453 14.0918C834.085 16.1436 841.519 18.8006 846.221 20.7129C851.204 22.8507 864.671 28.3567 874.481 40.833C879.009 46.4594 881.758 53.5239 883.112 60.1055C884.539 59.8879 885.997 59.6651 887.487 59.4375C898.359 57.784 910.995 55.8553 925.869 53.7412C935.456 52.3827 940.431 51.9076 944.476 51.5225C945.665 51.4098 946.779 51.3051 947.902 51.1914C951.783 50.7977 955.866 50.1217 960.617 49.3574C966.871 48.3585 974.322 47.1874 984.262 46.3584C1016.05 43.7789 1029.93 43.0828 1040.67 42.542C1043.7 42.4058 1046.71 42.3195 1049.57 42.3164C1055.77 42.3022 1064.01 42.7191 1071.53 43.7012C1075.73 44.2442 1079.04 44.8638 1082.7 45.749C1090.54 47.4056 1107.35 53.1871 1115.15 64.4551C1118.19 68.3884 1121.27 74.5102 1123.11 81.9424C1125.1 89.6257 1125.84 98.567 1126.85 107.742C1128.67 131.351 1136.98 139.767 1145.13 143.157C1147.49 144.211 1149.82 144.935 1152.17 145.494C1157.38 146.725 1163.24 147.264 1170.15 147.222C1173.52 147.195 1176.69 147.006 1180.1 146.605C1192.14 145.271 1203.68 140.838 1211.67 136.085C1232.8 124.251 1248.45 103.826 1259.64 81.79C1265.44 70.3938 1270.13 58.9642 1273.5 50.5527C1276.91 42.0726 1278.87 37.1215 1279.81 37.4902C1280.8 37.5184 1280.68 43.0109 1278.61 52.1436C1276.56 61.2017 1272.55 73.36 1266.66 85.2988C1254.91 109.103 1237.96 131.907 1213.53 144.999C1200.29 152.128 1185.22 155.753 1170.15 155.749C1152.87 156.413 1128.66 150.303 1122.96 129.675C1115.82 106.624 1120.94 82.5496 1107.31 66.8281C1106.03 65.3187 1104.48 63.8169 1102.93 62.5625C1093.74 55.3524 1081.21 52.7777 1070.62 51.6572C1065.89 51.1641 1061.14 50.8745 1057.18 50.7139C1046.43 50.301 1038.64 50.3494 1031.8 50.4365C1027.27 50.5042 1022.97 50.6443 1018.91 50.8926C1016.7 51.0276 1013.62 51.2369 1009.92 51.5293C994.926 52.6438 969.375 55.5538 946.124 58.5273C935.773 59.8262 923.785 61.345 912.31 62.8525C901.885 64.2225 891.899 65.5663 884.033 66.6816C884.069 67.1769 884.097 67.6648 884.116 68.1436C884.184 69.2978 884.211 70.447 884.209 71.5605C884.199 75.1493 883.826 78.688 883.189 82.3262C882.391 86.8181 881.341 90.8695 879.899 95.7168C879.153 98.2005 878.403 100.538 877.458 103.166C876.63 105.465 875.67 107.912 874.543 110.482C873.448 112.966 871.193 117.658 867.463 124.054C865.135 128.039 862.654 131.979 859.641 136.45C852.008 148.106 843.613 158.905 834.513 169.556C832.697 171.823 831.218 173.708 830.038 175.302C829.199 176.437 828.508 177.435 827.792 178.461C826.817 179.857 825.797 181.304 824.267 183.214C823.08 184.697 821.526 186.429 820.505 187.42C820.016 187.896 819.616 188.241 819.254 188.554C818.839 188.912 818.467 189.234 818.055 189.665C817.758 189.976 817.473 190.325 817.122 190.754C816.561 191.439 815.829 192.33 814.603 193.59C810.02 198.299 804.672 203.553 799.441 208.525C793.553 214.129 787.714 219.481 783.093 223.705C777.867 228.49 770.269 235.039 762.533 241.47C757.093 245.999 751.701 250.387 747.024 254.194C742.447 257.921 737.698 261.878 733.124 265.638C727.62 270.163 722.252 274.496 717.579 277.977C716.633 278.681 715.384 279.461 713.816 280.436C712.705 281.126 711.425 281.921 709.987 282.849C704.107 287.366 698.177 291.847 692.223 296.277C692.026 296.45 691.822 296.627 691.618 296.806C691.615 296.809 691.611 296.812 691.608 296.814C687.021 300.829 680.687 306.339 670.966 312.891C668.5 314.552 666.878 315.491 665.419 316.336C663.994 317.16 662.688 317.918 660.895 319.161C658.857 320.574 656.534 322.347 654.01 324.266C650.442 326.975 646.594 329.887 642.325 332.671C642.037 332.858 641.727 333.06 641.405 333.27C638.35 335.261 633.844 338.181 629.31 340.889C616.181 349.795 602.937 358.556 589.807 367.054C567.742 381.333 545.242 395.375 522.708 408.958C519.391 410.957 516.125 412.875 512.954 414.693C509.305 417.173 505.823 419.593 502.286 422.05C501.028 422.924 499.759 423.805 498.48 424.69C489.061 431.227 469.922 443.227 459.578 449.749C459.388 449.869 459.197 449.989 459.006 450.109C456.535 451.666 454.198 453.161 451.45 454.92C444.975 459.069 436.158 464.702 417.73 476.311C412.422 479.771 407.112 483.236 401.814 486.695C345.026 524.54 285.634 560.547 234.363 603.893C233.896 604.363 233.456 604.819 233.051 605.254C232.973 605.337 232.896 605.421 232.821 605.504C221.172 615.767 242.751 631.855 252.898 637.857C266.93 646.434 277.569 651.007 286.188 654.828C294.7 658.26 303.32 661.535 312.027 664.626C312.936 664.054 313.843 663.484 314.745 662.915C327.012 655.173 338.536 647.964 344.242 644.211C354.299 637.571 366.06 630.343 376.652 624.273C386.844 618.408 395.779 613.758 401.01 610.953C407.115 607.685 412.505 605.167 420.866 601.932C426.475 599.835 433.852 597.09 444.016 595.088C455.923 592.826 464.995 593.674 472.166 596.318C474.698 597.255 476.995 598.423 479.085 599.775C484.872 603.571 490.091 607.225 496.475 612.868C505.993 621.156 513.98 633.2 514.909 644.47C515.453 649.468 514.927 655.379 512.863 660.983C510.195 668.437 505.026 675.08 499.573 679.908C495.05 683.92 490.804 686.506 486.98 688.569C485.797 689.203 484.615 689.8 483.494 690.341C479.315 692.546 475.011 694.398 470.581 695.966C469.876 696.247 469.13 696.538 468.343 696.832C468.206 696.883 468.067 696.935 467.928 696.986C464.101 698.427 458.501 699.359 452.634 699.643C442.507 700.087 433.817 699.236 424.574 698.106C417.626 697.227 410.153 696.062 401.779 694.651C396.043 693.685 389.596 692.537 383.092 691.252C373.619 689.391 364.191 687.251 357.755 685.539C355.345 684.9 353.294 684.242 351.266 683.581C351.257 683.578 351.247 683.575 351.238 683.572C351.101 683.528 350.963 683.482 350.825 683.438C338.16 680.148 325.582 676.499 313.141 672.418C311.409 673.551 309.635 674.714 307.812 675.901C300.66 680.559 296.949 682.719 293.82 684.542C292.909 685.072 292.054 685.568 291.196 686.076C288.254 687.817 285.322 689.855 281.779 692.281C277.244 695.386 271.703 699.154 264.091 703.43C239.628 717.096 228.587 722.385 219.909 726.372C217.475 727.47 214.965 728.516 212.602 729.386C205.623 731.976 195.578 734.556 186.646 734.312C185.482 734.286 184.37 734.239 183.318 734.175C176.181 733.941 161.326 731.889 151.568 725.674C147.889 723.509 143.212 719.882 138.841 714.707C134.277 709.384 130.167 702.5 126.378 695.112C117.255 676.298 111.966 667.364 105.67 662.81C103.924 661.489 102.165 660.479 100.336 659.692C96.8796 658.186 92.5157 657.324 87.6465 657.383C84.5141 657.408 81.2803 657.999 78.1367 659.095C68.7281 662.349 60.5789 669.836 55.1152 675.877C40.546 691.605 29.6652 711.098 20.1523 730.902C15.2945 741.113 10.7965 750.954 7.23047 758.286C3.70664 765.499 1.35839 769.642 0.476562 769.157C-0.52073 769.031 0.0392487 764.22 2.23438 756.387C4.47212 748.437 8.22271 738.072 13.0381 727.581C22.8499 706.527 33.9594 685.662 50.3887 668.2C59.8208 658.476 72.1941 649.008 87.6465 648.865C104.631 647.55 119.436 661.88 125.434 675.33C134.439 693.109 141.442 711.818 157.694 720.433C159.273 721.305 161.018 722.129 162.694 722.802C170.365 725.74 178.889 726.618 186.646 726.51C192.734 726.428 198.915 725.01 203.6 723.666C212.442 721.07 218.636 718.5 224.175 716.166C227.758 714.635 231.138 713.073 234.346 711.441C236.053 710.573 238.4 709.35 241.283 707.786C252.915 701.57 272.005 689.877 289.426 678.853C294.072 675.931 299.166 672.725 304.357 669.457C304.297 669.436 304.236 669.415 304.176 669.395C302.82 668.946 301.458 668.488 300.117 668.031C293.634 665.831 287.221 663.453 283.19 662.005C278.586 660.336 267.656 655.929 256.326 649.99C248.794 646.04 241.619 641.684 235.715 637.108C232.341 634.477 229.464 631.698 226.698 628.103C224.353 624.966 221.853 620.998 220.936 615.854C220.475 613.286 220.563 610.147 221.483 607.284C222.344 604.591 223.656 602.335 225.491 600.106C225.745 599.801 226.056 599.444 226.431 599.044C227.904 597.434 231.52 594.044 235.47 590.779C238.869 587.946 241.607 585.795 245.633 582.679C254.862 575.318 264.716 567.99 274.374 560.969C276.453 559.343 278.046 558.035 279.324 556.903C280.237 556.095 280.996 555.365 281.783 554.613C282.855 553.589 283.975 552.524 285.62 551.148C286.905 550.074 288.519 548.874 289.558 548.218C290.056 547.902 290.459 547.682 290.824 547.483C291.242 547.255 291.617 547.051 292.041 546.753C292.347 546.538 292.646 546.285 293.015 545.973C293.604 545.474 294.373 544.825 295.634 543.945C300.416 540.608 305.641 537.043 310.936 533.457C316.954 529.38 322.428 525.706 327.061 522.543C332.264 518.99 339.416 514.349 346.916 509.512C352.009 506.229 357.183 502.907 361.634 500.007C365.937 497.203 370.354 494.196 374.676 491.262C379.887 487.723 384.793 484.401 389.146 481.697C390.024 481.152 391.18 480.576 392.631 479.852C393.658 479.339 394.848 478.744 396.169 478.049C401.598 474.504 407.045 470.964 412.497 467.438C412.678 467.296 412.865 467.149 413.052 467.003C413.054 467.001 413.057 466.998 413.06 466.996C417.288 463.682 423.02 459.186 431.871 453.936C434.12 452.602 435.598 451.866 436.929 451.204C438.235 450.554 439.402 449.975 441.009 448.977C442.834 447.842 444.904 446.391 447.205 444.783C450.42 442.536 453.996 440.039 457.733 437.83C457.988 437.679 458.263 437.517 458.548 437.349C461.218 435.77 465.362 433.312 469.45 431.095C481.063 423.774 492.928 416.342 504.605 409.066C524.182 396.868 543.746 384.781 563.539 372.622C567.809 370 572.055 367.481 576.092 365.171C581.941 361.185 587.58 357.188 592.906 353.362C594.307 352.358 595.718 351.344 597.14 350.322C607.968 342.584 628.986 328.477 640.602 320.419C640.811 320.274 641.021 320.129 641.23 319.984C643.944 318.11 646.51 316.31 649.522 314.183C656.74 309.057 666.428 302.285 686.469 287.729C692.239 283.405 697.988 279.045 703.696 274.66C764.113 226.874 828.043 177.221 864.71 110.11C865.117 109.263 865.493 108.462 865.93 107.507C871.018 96.4897 874.998 83.2631 874.935 71.5605C874.944 70.3557 874.916 69.1784 874.855 68.0312C874.169 68.1377 873.524 68.2383 872.927 68.335C859.415 70.5299 843.856 72.7432 830.109 74.5703C816.976 76.3242 805.498 77.7094 798.933 78.6719C791.175 79.8097 784.512 80.5072 774.473 81.3809C767.645 81.9582 759.023 82.6603 747.523 83.2842C734.127 83.9906 724.557 83.9135 716.562 83.5986C709.732 83.3178 703.944 82.8658 697.847 82.1709C693.537 81.6705 689.115 81.0675 683.953 80.1846C669.975 77.8409 655.489 73.331 644.888 68.25C639.945 65.9061 634.584 63.0831 629.163 59.415C622.182 54.6448 614.867 48.3972 611.123 40.3027C607.839 33.5535 609.065 25.998 612.373 21.6396C613.367 20.2231 614.39 19.101 615.58 17.9814C619.711 13.9653 624.524 11.4685 629.704 9.36426C630.458 9.03046 631.273 8.6836 632.155 8.33105C636.833 6.47776 642.309 4.77204 649.37 3.36621C660.519 1.18959 670.686 0.505001 681.065 0.171875ZM475.417 605.178C459.867 595.6 436.278 603.306 421.357 609.254C418.735 610.312 416.524 611.259 414.324 612.236C402.303 617.771 390.643 624.256 379.159 631.084C378.379 631.498 377.591 631.918 376.787 632.348C366.702 637.744 354.775 645.159 336.256 657.264C331.487 660.377 326.275 663.806 320.533 667.575C360.142 680.991 401.441 690.454 442.751 693.38C450.806 693.667 459.26 693.667 466.188 691.584C474.328 688.968 482.125 685.344 489.04 680.515C501.296 672.161 510.953 658.466 508.569 644.073C507.256 635.835 502.72 628.729 497.675 623.063C490.554 615.139 482.423 609.564 475.61 605.297C475.546 605.257 475.481 605.217 475.417 605.178ZM710.05 6.38184C693.673 5.86219 677.431 6.02265 661.43 7.84668C643.533 10.3042 619.286 13.8928 615.189 29.8789C614.9 45.0656 633.762 56.1736 648.712 63.1406C658.018 67.2338 667.361 70.082 676.144 72.1133C684.183 73.9664 691.672 75.1116 698.573 75.8389C702.109 76.2108 705.823 76.4773 708.99 76.6436C731.541 77.8404 757.255 75.9739 776.363 74.1865C779.51 73.8898 782.457 73.5949 785.161 73.3135C800.316 71.5739 815.461 69.4994 830.586 67.2891C831.597 67.1848 832.614 67.0811 833.651 66.9746C844.168 65.8958 856.54 64.1277 874.098 61.4736C873.589 58.7097 872.867 56.2112 871.972 54.0352C864.98 38.1544 851.936 32.3378 843.003 27.7939C801.905 10.6278 755.375 8.37926 710.05 6.38184Z" fill="#6E3997"/>
</svg>
