<svg id="Layer_1" data-name="Layer 1" xmlns="http://www.w3.org/2000/svg" viewBox="0 0 1000 1000"><defs><style>.cls-1,.cls-3{fill:#fff}.cls-1,.cls-7{fill-rule:evenodd}.cls-7{fill:#59ffb9}</style><mask id="mask" x="0" y="0" width="999.56" height="1002.09" maskUnits="userSpaceOnUse"><g id="b"><path id="a" class="cls-1" d="M0 0h999.56v1002.09H0z"/></g></mask></defs><path d="M713.58 413.93H586.07v-127c0-157.65-127.8-285.45-285.45-285.45h-13.74C129.24 1.44 1.44 129.24 1.44 286.89v711.67h711.21c157.9 0 285.91-128 285.91-285.91v-13.74c0-157.39-127.59-285-285-285z" style="fill:#004697"/><path class="cls-3" d="M157.88 288.14c6-1.83 15-2.76 26.48-2.76h57.83V239h28v-25.5H102.81V239h111.84v20.47h-33.39c-23.36 0-40.54 4.26-51.07 12.67S114.11 294 114.11 312c0 20.23 6.44 34.93 19.14 43.68 12.36 8.53 30.89 12.85 55.08 12.85a155.1 155.1 0 0 0 30.85-2.65v28h27.54v-42.12a25.71 25.71 0 0 0 5.65-16.14c0-7.24-2.63-12.6-7.81-15.94-4.82-3.1-11.76-4.61-21.21-4.61h-2.9l-10.16 24.57c-5.64 1.29-13.3 1.95-22.81 1.95-12.12 0-21.62-1-28.23-2.9-6.08-1.77-10.21-4.49-12.62-8.34-2.55-4.06-3.84-9.94-3.84-17.47 0-7.23 1.21-12.88 3.59-16.8 2.21-3.66 6-6.26 11.5-7.94z"/><path d="M547.21 478H257.44v-13.82c0-12.48-3.19-22.49-9.49-29.75s-16.76-12.59-31.1-15.78C203.11 415.59 184 414 160.07 414h-4.17v26h4.17c20.75 0 36.28.78 46.17 2.31 9.1 1.41 15.38 4 18.66 7.56s5 9.58 5 17.65V478H102.81v25.46h124.27v22.39a131 131 0 0 0-15.64-3.74 156 156 0 0 0-26.5-2c-23.06 0-40.31 3.85-51.27 11.43-11.29 7.81-17 21.07-17 39.42 0 18.17 5.67 31.39 16.84 39.28 11 7.79 27.76 11.58 51.16 11.58a156.67 156.67 0 0 0 26.79-2 117.53 117.53 0 0 0 15.63-3.82v30.46h27.54v-143h123.56v23.31h-3.46c-29.88 0-52.23 4.27-66.41 12.7-14.73 8.75-22.2 23.58-22.2 44.08 0 20.09 6.78 34.84 20.17 43.83 13 8.74 31.76 13.18 55.74 13.18 20.07 0 37.73-2.89 52.49-8.59l2.52-1V603.4l-5.84 2.29c-13.52 5.29-29.68 8-48 8-17.1 0-29.68-2.51-37.39-7.47-7.38-4.74-11-12.47-11-23.6 0-7.89 1.95-14 5.8-18.08s10.23-7.17 18.79-8.95c9.16-1.9 22-2.87 38.18-2.87h28.17v-49.27h75.8a51.6 51.6 0 0 1 8.79 14 44.59 44.59 0 0 1 3.95 17.82c0 8.47-3.12 14-9.53 16.77-7.29 3.2-19.69 4.83-36.86 4.83h-15.5V578l61.48 68.48h32.43v-5.32l-54.48-59.06c16.56-1.28 28.61-4.8 36.7-10.69 9.55-6.95 14.39-18.08 14.39-33.09a85.87 85.87 0 0 0-2.79-21.57 88 88 0 0 0-4.56-13.29h31.64V478zm-320.13 72.2V587l-51-40.73c3.55-.15 7.56-.22 12-.22a209 209 0 0 1 24.15 1.15 96.19 96.19 0 0 1 14.89 3zm-26.48 45.46c-3.56.16-7.47.23-11.72.23-13 0-22.83-.76-29.33-2.25-5.75-1.32-9.74-3.58-11.88-6.73-2.32-3.41-3.49-8.77-3.49-15.94a36.39 36.39 0 0 1 1.82-12.44 14.06 14.06 0 0 1 2.64-4.49l52 41.62z" style="fill:#59ffb9"/><path class="cls-3" d="M228.14 731.45c6 0 10.85-1.65 14.34-4.91s5.37-7.95 5.37-13.74-1.81-10.41-5.37-13.74-8.31-4.91-14.34-4.91-10.85 1.65-14.34 4.91-5.37 8-5.37 13.74 1.81 10.41 5.37 13.74 8.31 4.91 14.34 4.91z"/><path class="cls-3" d="M309.5 742.45a51.76 51.76 0 0 1-4.05-19.45c0-7.87 2.24-13.36 6.65-16.3 3.31-2.2 10.72-4.82 27.32-4.82 16.89 0 32.42 2.5 46.18 7.43s28 13.42 42.21 25.2l7 5.8v-28.48l-1.38-1.11c-28.34-22.79-60.17-34.34-94.58-34.34-19.32 0-34.39 3.73-44.8 11.1-10.72 7.57-16.13 18.48-16.13 32.41a61.28 61.28 0 0 0 4.22 22.56H102.81v25.46h111.28v16.92h-46.66c-16.67 0-28.49 3-36.13 9.26s-11.55 15.68-11.55 28.08c0 12.8 3.83 22.83 11.34 29.83a36.26 36.26 0 0 0 10.5 6.7 3.83 3.83 0 0 0 .43.17c.52.21 1 .43 1.6.62a1.23 1.23 0 0 1 .24.09c3.29 1 8 2 9.65 2.3.41.06.62.11.62.11a85.94 85.94 0 0 0 23.25-.36c4.74-.64 9.38-1.37 13.81-2.18 8.72-1.66 15.55-2.52 20.29-2.52s8.38.88 10.38 2.63 3 4.82 3 9.26c0 6.12-2.14 10.33-6.57 12.85-3.38 1.94-11 4.27-28 4.27-11.81 0-21.46-1-28.72-2.84l-8.53-20.38c-9-3.67-18.39-1.43-21.72-.41a3.15 3.15 0 0 0-.41.13c-.57.21-1.14.47-1.55.66l-.55.26a12.1 12.1 0 0 0-1.07.64c-5.31 3.33-8 8.62-8 15.73a23.71 23.71 0 0 0 5.95 16v40.76h27.53v-26.93c9.57 2.16 21.06 3.27 34.23 3.27 22.79 0 39-3.46 49.66-10.56 10.86-7.28 16.36-19 16.36-34.85 0-11.27-3.07-20.27-9.15-26.78-6.29-6.7-17.05-10.12-32-10.12a104.24 104.24 0 0 0-14.05 1c-4.67.64-9.07 1.37-13.08 2.15-8.88 1.69-16 2.54-21.17 2.54-5.79 0-10-1-12.31-2.84s-3.29-5.29-3.29-10.24c0-4.69 1.29-7.92 3.79-9.52 2-1.3 6.67-2.86 17.46-2.86h72.53V767.9H285v143h27.53v-143h125v16.92h-46.99c-16.67 0-28.49 3-36.13 9.26s-11.53 15.6-11.53 27.85c0 12.78 3.81 22.85 11.31 29.94s18.55 10.73 32.68 10.73a104.89 104.89 0 0 0 13.72-1c4.86-.64 9.62-1.37 14.22-2.15 9.12-1.69 15.86-2.54 20.08-2.54 4.67 0 8.07.88 10.08 2.63s3 4.82 3 9.26c0 6.08-2.29 10.26-7 12.78-3.67 2-12 4.33-30.61 4.33-24.32 0-45.78-3.78-63.79-11.27l-5.91-2.45v27.51l2.19 1.07c7.48 3.63 17.63 6.59 30.13 8.79a220.63 220.63 0 0 0 37.94 3.27c22.63 0 38.8-3.63 49.45-11.1 10.81-7.57 16.29-19.21 16.29-34.55 0-11.12-3.1-20-9.17-26.55-6.26-6.7-16.84-10.12-31.44-10.12a105.06 105.06 0 0 0-13.89 1c-4.69.62-9.27 1.34-13.62 2.13-1.64.17-4.79.66-9.53 1.43a76.74 76.74 0 0 1-12.39 1.13c-5.5 0-9.46-1-11.74-2.84s-3.29-5.29-3.29-10.24c0-4.69 1.26-7.92 3.76-9.52 2-1.3 6.69-2.86 17.48-2.86H465v-42.85h54.88c5.67 7.92 8.53 15.66 8.53 23 0 5.55-1.64 9.26-5 11.37-2.6 1.64-8.6 3.58-22.46 3.58h-12.08v7.3c0 19.55 6.57 34.4 19.55 44.17 12.77 9.62 31.06 14.49 54.38 14.49a133.66 133.66 0 0 0 34.51-4.23v43.3h27.56v-143h45.87v143h27.56v-143h29.94v-25.42zm287.82 99.34A156.1 156.1 0 0 1 564.5 845c-14.41 0-25.68-1.56-33.49-4.65a24.91 24.91 0 0 1-12.5-10.09c11.67-.73 20.77-3.59 27.13-8.54 7.6-5.93 11.46-15.15 11.46-27.44a48.25 48.25 0 0 0-2.74-16.43 54.72 54.72 0 0 0-5-9.9h47.92v73.87z"/><g style="mask:url(#mask)"><path d="M713.88 414.54H586.07V286.87C586.07 128.44 457.94 0 299.93 0h-13.78C128.11 0 0 128.44 0 286.87v715.22h713c158.29 0 286.61-128.66 286.61-287.33v-13.82c0-158.16-127.91-286.4-285.68-286.4" style="fill:#004697;fill-rule:evenodd"/></g><path class="cls-7" d="M197.11 594.46c0-28.19-7-45.54-29.71-45.54s-29.68 17.35-29.68 45.54 7 45.54 29.68 45.54 29.71-17.35 29.71-45.54m37.49-.17c0 51.45-22.4 73.09-57 73.09-21.44 0-31.13-6.61-38.13-17.28v15.06h-37V490h-14v-27.37h45a6.09 6.09 0 0 1 6.08 6.1v68.11c7.31-9.09 19.22-15.76 38.44-15.76 34.31 0 56.7 21.81 56.7 73.23m225.06 72.76h1.55-1.53zM490.12 639.67h-25.06c-17.33-2.11-17.38-15.48-17.38-28.5v-60.66h36.06v-27.4h-36v-42h-37v135.32c0 13.71 0 49.85 49 50.59.52 0 1 .05 1.54.05h30.18v-27.4h-1.24zm95.18 0h-25c-17.31-2.11-17.37-15.48-17.37-28.5v-60.66h36v-27.4h-36v-42h-37v135.32c0 13.71 0 49.85 49 50.59.51 0 1 .05 1.53.05h30.18v-27.4zm79.89-93.47c-19.22 0-28.1 11.15-28 36.95h55.92c.16-25.8-8.74-36.95-28-36.95m-66.38 48.09c0-47.28 22.08-73.87 67.49-73.87 40.5 0 64.8 21 64.8 74v7.09a7.84 7.84 0 0 1-7.82 7.72h-85.64c-.16 21.37 16.2 30.77 41.61 30.77 15.56 0 22.86-3.63 32.07-6.65v27.71c-7.63 3.17-14.74 7-37.31 7-44.63 0-75.12-18.32-75.12-73.73M322.25 546.2c-19.22 0-28.11 11.15-28 36.95h55.92c.16-25.8-8.74-36.95-28-36.95m-66.4 48.09c0-47.28 22.08-73.87 67.53-73.87 40.48 0 64.79 21 64.79 74 0 2.4 0 4.87-.05 7.09a7.84 7.84 0 0 1-7.83 7.72h-85.59c-.19 21.33 16.2 30.73 41.61 30.73 15.56 0 22.86-3.63 32.07-6.65v27.71c-7.65 3.17-14.75 7-37.32 7-44.63 0-75.13-18.32-75.13-73.73M837 520.56c-19.66 0-31.56 10.85-38.23 25.33v-16.68a6.09 6.09 0 0 0-6.08-6.1h-45.83v27.4h16.51v114.66h35.2V600c0-9.71 1.64-29 14-39.16 5.4-4.48 13.19-7.34 24.15-7.34h11v-33z"/><path class="cls-1" d="M101.44 734.84c0-11.47 8.43-19.75 19.86-19.75s19.86 8.28 19.86 19.75-8.41 19.74-19.84 19.74-19.88-8.28-19.88-19.74zm38.64 179.94h-36.87v-142h36.89v142zm354.76-179.94c0-11.47 8.43-19.75 19.84-19.75s19.87 8.28 19.87 19.75-8.42 19.74-19.85 19.74-19.86-8.28-19.86-19.74zm38.62 179.94h-36.84l-.05-142h36.89zm-219.84 0h-43.38a6.1 6.1 0 0 1-6.09-6.1v-75.11c0-12.42 0-35.19-22.25-35.19-26.35 0-28 32.17-28 49.36v67h-35.36V800.13h-14v-27.38h42.77a6.1 6.1 0 0 1 6.1 6.1V792c4.3-8.43 13.93-21.67 41.1-21.67 46.69 0 46.69 39.33 46.69 58.61v58.46h12.45zm114.56-70.87c0-28.33-7-45.86-29.7-45.86s-29.71 17.53-29.71 45.86 7 45.71 29.71 45.71 29.7-17.36 29.7-45.71zm35.26 70.87h-37.08l.13-15.06c-7 10.66-16.75 17.3-38.17 17.3-34.64 0-57-21.67-57-73.11s22.39-73.24 56.7-73.24c19.22 0 31.13 6.69 38.45 15.77v-74.21h37zm196.74-70.71c0-28.18-7-45.54-29.7-45.54s-29.69 17.36-29.69 45.54 7 45.55 29.69 45.55 29.7-17.36 29.7-45.55zm35.26 70.71H661.3v-17C654.14 908.57 641.6 917 620 917c-34.62 0-56.69-21.5-56.69-72.95 0-51.26 22.07-72.94 56.86-72.94 21.77 0 34.16 8.45 41 19.12v-17.5h34.29zM181.89 390.06h-25c-17.34-2.11-17.4-15.49-17.4-28.5v-60.67h36.06V273.5h-36v-42.05h-37v135.37c0 13.71 0 49.85 49 50.58v.06h31.77v-27.4zm160.53 27.4h-43.8a6.1 6.1 0 0 1-6.08-6.11v-75.12c0-12.41 0-35.19-22.24-35.19-26.38 0-26.38 32.17-26.38 49.37v67h-37V242.28h-14V214.9h45a6.1 6.1 0 0 1 6.08 6.11v69.53c5.41-8 15.89-17.52 38.92-17.52 46.71 0 46.71 39.33 46.71 58.61v58.43h12.87zm80.78-120.87c-19.23 0-28.13 11.14-28 37h55.92c.16-25.81-8.74-37-28-37m-66.39 48.09c0-47.29 22.08-73.9 67.5-73.9 40.51 0 64.8 21 64.8 74v7.12a7.83 7.83 0 0 1-7.83 7.69h-85.67c-.17 21.35 16.2 30.76 41.61 30.76 15.58 0 22.86-3.65 32.07-6.67v27.71c-7.63 3.18-14.74 7-37.31 7-44.64 0-75.12-18.29-75.12-73.71"/></svg>