<?xml version="1.0" encoding="UTF-8"?>
<svg xmlns="http://www.w3.org/2000/svg" xmlns:xlink="http://www.w3.org/1999/xlink" width="200px" height="86px" viewBox="0 0 201 86" version="1.1">
<g id="surface1">
<path style=" stroke:none;fill-rule:nonzero;fill:rgb(0%,0%,0%);fill-opacity:1;" d="M 199.542969 32.75 L 199.53125 33.066406 C 199.304688 38.074219 197.554688 42.09375 194.332031 45.007812 C 188.625 50.164062 180.226562 49.726562 178.058594 49.703125 C 178.035156 49.703125 177.679688 49.703125 177.664062 49.703125 L 177.664062 26.375 C 177.769531 26.375 178.199219 26.375 178.308594 26.367188 C 182.378906 26.34375 187.117188 25.976562 187.90625 36.175781 L 187.925781 36.476562 L 188.710938 36.476562 L 188.710938 15.226562 L 187.941406 15.226562 L 187.90625 15.519531 C 186.863281 25.199219 181.996094 25.160156 178.027344 25.167969 C 178.011719 25.167969 177.671875 25.167969 177.664062 25.167969 L 177.664062 2.925781 C 178.1875 2.921875 179.046875 2.914062 179.574219 2.90625 C 187.058594 2.792969 194.472656 2.019531 197.628906 18.003906 L 197.679688 18.273438 L 198.480469 18.273438 L 198.480469 1.683594 L 155.453125 1.683594 L 155.453125 2.828125 L 159.261719 2.828125 L 159.261719 37.824219 C 159.167969 42.851562 157.210938 45.9375 155.492188 47.570312 C 153.410156 49.546875 150.5 50.585938 147.871094 50.496094 C 138.164062 50.140625 137.890625 40.34375 137.886719 39.914062 L 137.886719 2.828125 L 142.304688 2.828125 L 142.304688 1.683594 L 125.109375 1.683594 L 125.109375 2.828125 L 129.671875 2.828125 L 129.660156 35.820312 C 129.660156 44.839844 134.226562 51.796875 147.558594 51.796875 C 156.496094 51.796875 160.597656 44.34375 160.507812 38.160156 L 160.507812 2.828125 L 164.558594 2.828125 L 164.558594 2.835938 L 169.367188 2.835938 L 169.367188 49.683594 L 165.03125 49.683594 L 165.03125 50.863281 L 200.441406 50.863281 L 200.441406 32.75 Z M 199.542969 32.75 "/>
<path style=" stroke:none;fill-rule:nonzero;fill:rgb(0%,0%,0%);fill-opacity:1;" d="M 109.988281 29.816406 L 109.988281 30.964844 L 113.949219 30.964844 L 113.949219 41.214844 C 113.9375 48.875 108.878906 50.578125 104.910156 50.65625 C 100.632812 50.726562 97.757812 48.625 96.132812 44.253906 C 94.527344 39.984375 93.6875 35.871094 93.6875 26.285156 C 93.6875 22.875 94.210938 11.6875 96.71875 6.792969 C 97.671875 4.949219 99.449219 1.515625 104.746094 1.515625 C 104.761719 1.515625 104.777344 1.515625 104.792969 1.515625 C 111.246094 1.539062 114.960938 6.03125 117.96875 18.058594 L 118.03125 18.3125 L 118.757812 18.3125 L 118.757812 0.238281 L 118.058594 0.238281 L 117.96875 0.441406 C 117.285156 2.097656 115.640625 2.460938 114.226562 2.425781 C 113.550781 2.398438 112.9375 2.300781 112.480469 2.207031 C 112.082031 2.121094 111.828125 2.039062 111.816406 2.03125 C 111.191406 1.835938 110.640625 1.648438 110.136719 1.484375 C 109.90625 1.40625 109.683594 1.335938 109.460938 1.273438 C 107.832031 0.734375 106.617188 0.386719 104.730469 0.386719 C 96.242188 0.386719 84.566406 9.042969 84.566406 26.910156 C 84.566406 41.5 93.292969 51.804688 105.210938 51.804688 C 107.425781 51.804688 109.257812 51.074219 110.984375 50.269531 C 111.304688 50.136719 111.625 50.003906 111.929688 49.859375 C 113.613281 49.054688 115.207031 48.296875 117.003906 48.199219 C 117.074219 48.195312 117.148438 48.195312 117.21875 48.195312 C 117.273438 48.195312 117.320312 48.191406 117.371094 48.191406 C 118.410156 48.191406 120.496094 48.863281 120.898438 50.875 L 120.949219 51.136719 L 121.648438 51.140625 L 121.648438 30.96875 L 125.398438 30.96875 L 125.398438 29.824219 L 109.988281 29.824219 Z M 109.988281 29.816406 "/>
<path style=" stroke:none;fill-rule:nonzero;fill:rgb(0%,0%,0%);fill-opacity:1;" d="M 59.300781 0.492188 C 49.234375 0.492188 38.203125 10.59375 38.203125 26.011719 C 38.203125 41.429688 49.59375 51.664062 59.300781 51.664062 C 69.007812 51.664062 80.394531 41.429688 80.394531 26.011719 C 80.398438 10.59375 69.363281 0.492188 59.300781 0.492188 Z M 71.066406 24.117188 C 71.066406 24.226562 71.070312 24.339844 71.070312 24.449219 C 71.074219 24.53125 71.074219 24.609375 71.074219 24.695312 C 71.074219 24.753906 71.078125 24.820312 71.078125 24.882812 C 71.078125 24.984375 71.078125 25.082031 71.078125 25.179688 C 71.078125 25.21875 71.078125 25.257812 71.078125 25.292969 C 71.078125 25.394531 71.082031 25.496094 71.082031 25.59375 C 71.082031 25.617188 71.082031 25.644531 71.082031 25.671875 C 71.082031 25.789062 71.082031 25.902344 71.082031 26.011719 C 71.082031 26.097656 71.082031 26.191406 71.082031 26.285156 C 71.070312 29.136719 70.828125 40.164062 67.957031 45.660156 C 66.332031 48.847656 63.121094 50.53125 59.300781 50.53125 C 55.476562 50.53125 52.265625 48.847656 50.640625 45.65625 C 47.765625 40.164062 47.523438 29.136719 47.511719 26.285156 C 47.511719 26.191406 47.511719 26.097656 47.511719 26.011719 C 47.511719 25.90625 47.511719 25.792969 47.511719 25.671875 C 47.511719 25.644531 47.511719 25.617188 47.511719 25.59375 C 47.511719 25.496094 47.511719 25.394531 47.515625 25.292969 C 47.515625 25.257812 47.515625 25.21875 47.515625 25.179688 C 47.515625 25.082031 47.519531 24.984375 47.519531 24.882812 C 47.519531 24.820312 47.519531 24.753906 47.519531 24.695312 C 47.519531 24.613281 47.523438 24.53125 47.523438 24.449219 C 47.527344 24.339844 47.527344 24.226562 47.53125 24.117188 C 47.53125 24.078125 47.53125 24.039062 47.53125 23.996094 C 47.644531 19.601562 48.191406 11.34375 50.640625 6.492188 C 52.628906 2.472656 56.597656 1.632812 59.300781 1.632812 C 62.003906 1.632812 65.976562 2.472656 67.957031 6.5 C 70.40625 11.347656 70.949219 19.605469 71.0625 24 C 71.0625 24.039062 71.066406 24.078125 71.066406 24.117188 Z M 71.066406 24.117188 "/>
<path style=" stroke:none;fill-rule:nonzero;fill:rgb(0%,0%,0%);fill-opacity:1;" d="M 32.78125 1.691406 L 32.78125 2.824219 L 36.785156 2.824219 L 26.097656 38.730469 L 13.1875 2.824219 L 16.851562 2.824219 L 16.851562 2.164062 L 16.855469 2.164062 L 16.855469 1.691406 L 0.558594 1.691406 L 0.558594 2.824219 L 5.277344 2.824219 L 23.359375 51.128906 L 23.621094 51.128906 L 38.023438 2.824219 L 42.4375 2.824219 L 42.4375 1.691406 Z M 32.78125 1.691406 "/>
<path style=" stroke:none;fill-rule:nonzero;fill:rgb(0%,0%,0%);fill-opacity:1;" d="M 61.144531 85.339844 L 61.144531 63.042969 L 65.167969 63.042969 L 65.167969 85.339844 Z M 61.144531 85.339844 "/>
<path style=" stroke:none;fill-rule:nonzero;fill:rgb(0%,0%,0%);fill-opacity:1;" d="M 89.441406 85.761719 L 76.207031 70.785156 L 76.085938 70.785156 L 76.085938 85.339844 L 72.308594 85.339844 L 72.308594 62.625 L 73.453125 62.625 L 86.714844 77.535156 L 86.839844 77.535156 L 86.839844 63.042969 L 90.589844 63.042969 L 90.589844 85.761719 Z M 89.441406 85.761719 "/>
<path style=" stroke:none;fill-rule:nonzero;fill:rgb(0%,0%,0%);fill-opacity:1;" d="M 104.957031 85.339844 L 97.730469 85.339844 L 97.730469 63.042969 L 104.691406 63.042969 C 107.785156 63.042969 111.714844 63.589844 114.328125 67.082031 C 115.828125 69.097656 116.515625 71.511719 116.515625 74.164062 C 116.511719 80.636719 112.703125 85.339844 104.957031 85.339844 Z M 110.902344 69.070312 C 109.734375 67.65625 107.871094 66.601562 104.957031 66.601562 L 101.746094 66.601562 L 101.746094 81.785156 L 104.925781 81.785156 C 109.96875 81.785156 112.492188 78.800781 112.492188 74.226562 C 112.492188 72.328125 111.984375 70.484375 110.902344 69.070312 Z M 110.902344 69.070312 "/>
<path style=" stroke:none;fill-rule:nonzero;fill:rgb(0%,0%,0%);fill-opacity:1;" d="M 122.722656 85.339844 L 122.722656 63.042969 L 126.746094 63.042969 L 126.746094 85.339844 Z M 122.722656 85.339844 "/>
<path style=" stroke:none;fill-rule:nonzero;fill:rgb(0%,0%,0%);fill-opacity:1;" d="M 149.402344 85.339844 L 147.335938 80.335938 L 138.511719 80.335938 L 136.40625 85.339844 L 132.085938 85.339844 L 142.53125 62.558594 L 143.429688 62.558594 L 153.753906 85.339844 Z M 142.949219 69.882812 L 139.621094 77.203125 L 146.222656 77.203125 Z M 142.949219 69.882812 "/>
</g>
</svg>
